<?xml version="1.0" encoding="UTF-8"?>
<svg version="1.1" xmlns="http://www.w3.org/2000/svg" width="900" height="900">
<path d="M0 0 C297 0 594 0 900 0 C900 297 900 594 900 900 C603 900 306 900 0 900 C0 603 0 306 0 0 Z " fill="#EFDA4F" transform="translate(0,0)"/>
<path d="M0 0 C2.37607847 -0.00218323 4.75168894 -0.02038908 7.12768555 -0.03930664 C16.13080815 -0.07340049 24.71599254 0.41664838 33.57885742 2.18530273 C34.44841064 2.35698975 35.31796387 2.52867676 36.21386719 2.70556641 C47.75969588 5.13692465 58.17955309 8.62622761 68.57885742 14.18530273 C70.1644043 15.02061523 70.1644043 15.02061523 71.78198242 15.87280273 C92.36973714 27.2752515 109.01409918 45.84727961 120.57885742 66.18530273 C120.57885742 66.84530273 120.57885742 67.50530273 120.57885742 68.18530273 C118.29583074 69.75545971 116.01519959 71.20102017 113.64135742 72.62280273 C112.16141778 73.52778988 110.68227612 74.43408305 109.20385742 75.34155273 C108.43686523 75.81077148 107.66987305 76.27999023 106.87963867 76.76342773 C103.2656673 78.99684977 99.70250784 81.30639475 96.14135742 83.62280273 C95.08899902 84.30596558 95.08899902 84.30596558 94.01538086 85.00292969 C92.58770403 85.93000737 91.16029552 86.8574984 89.7331543 87.78540039 C87.56323049 89.19545741 85.39171107 90.60301802 83.21948242 92.00952148 C82.50219971 92.47398682 81.78491699 92.93845215 81.04589844 93.41699219 C79.6227124 94.33734603 78.19873544 95.25647811 76.77392578 96.17431641 C73.33185126 98.3930248 69.90497959 100.62961367 66.50463867 102.91186523 C65.86292725 103.33773926 65.22121582 103.76361328 64.56005859 104.20239258 C63.35280894 105.00426168 62.15079979 105.81409664 60.95507812 106.63305664 C59.33666992 107.70092773 59.33666992 107.70092773 56.57885742 109.18530273 C52.79164785 107.92289954 52.52675798 106.77675896 50.57885742 103.37280273 C42.69011537 90.69152637 32.33562513 79.76091585 17.36010742 75.99780273 C3.86044295 73.31157219 -11.66918017 73.36169268 -23.63208008 80.50561523 C-30.01529973 84.84810295 -35.48646465 91.18299707 -37.95239258 98.59545898 C-39.83476257 108.99555318 -39.59920545 120.99421374 -34.20239258 130.28295898 C-32.73244647 132.40213129 -31.16153401 134.28247477 -29.42114258 136.18530273 C-28.55102539 137.13663086 -28.55102539 137.13663086 -27.66333008 138.10717773 C-14.20692709 151.29972969 5.59031708 157.94247345 22.57885742 165.18530273 C116.90556228 205.58244221 116.90556228 205.58244221 137.10620117 252.75170898 C147.08191999 279.4041614 149.00403174 308.62192856 141.57885742 336.18530273 C141.36575928 336.99507568 141.15266113 337.80484863 140.93310547 338.63916016 C139.256816 344.63982418 136.9545079 350.01168908 134.01635742 355.49780273 C133.35990234 356.7293811 133.35990234 356.7293811 132.69018555 357.98583984 C118.75170441 383.4724224 96.2324285 399.78542804 69.57885742 410.18530273 C68.64041992 410.55397461 67.70198242 410.92264648 66.73510742 411.30249023 C60.55017772 413.54365858 54.26170741 414.99630159 47.82885742 416.31030273 C47.05590332 416.46901855 46.28294922 416.62773438 45.48657227 416.79125977 C31.25495732 419.55391864 17.23275252 420.62511759 2.76635742 420.62280273 C1.92079285 420.62420258 1.07522827 420.62560242 0.20404053 420.62704468 C-15.13277018 420.6063139 -29.50892766 418.96098242 -44.42114258 415.18530273 C-45.24678711 414.98243652 -46.07243164 414.77957031 -46.9230957 414.57055664 C-89.39762553 403.89842981 -123.06854158 377.26638504 -145.65600586 340.15649414 C-148.42114258 335.46219227 -148.42114258 335.46219227 -148.42114258 333.18530273 C-147.29063477 332.57686523 -146.16012695 331.96842773 -144.99536133 331.34155273 C-134.86514036 325.84913539 -124.88261892 320.1472211 -114.98364258 314.24780273 C-106.47104088 309.1758492 -97.94869307 304.12531343 -89.35864258 299.18530273 C-88.47829346 298.67491455 -87.59794434 298.16452637 -86.69091797 297.63867188 C-85.88904053 297.17968506 -85.08716309 296.72069824 -84.26098633 296.24780273 C-83.56352295 295.8469043 -82.86605957 295.44600586 -82.14746094 295.03295898 C-80.42114258 294.18530273 -80.42114258 294.18530273 -78.42114258 294.18530273 C-78.16461914 294.70737305 -77.9080957 295.22944336 -77.64379883 295.76733398 C-74.06513618 302.64752379 -69.45560445 308.31743332 -64.42114258 314.18530273 C-63.46208008 315.36479492 -63.46208008 315.36479492 -62.48364258 316.56811523 C-53.70664198 327.06394512 -42.72341668 333.63187765 -30.42114258 339.18530273 C-29.69282227 339.52432617 -28.96450195 339.86334961 -28.21411133 340.21264648 C-11.22440423 347.40197517 15.46796665 347.0775771 32.6262207 340.38696289 C44.84247495 335.01925889 53.58453108 327.78901041 58.57885742 315.18530273 C61.52597081 306.43781968 60.60783685 293.40154292 56.57885742 285.18530273 C43.21330529 263.09501519 13.03654382 254.17363831 -9.48730469 244.62011719 C-35.6507746 233.52189882 -61.8936059 222.20129346 -83.42114258 203.18530273 C-84.19458008 202.54334961 -84.96801758 201.90139648 -85.76489258 201.23999023 C-101.04986158 188.31058153 -111.55404822 170.64938015 -117.67114258 151.74780273 C-117.91743408 150.99756836 -118.16372559 150.24733398 -118.41748047 149.47436523 C-122.05393944 137.71710929 -122.79431426 125.91909691 -122.79174805 113.70263672 C-122.79611851 111.38556141 -122.83257905 109.07040279 -122.87036133 106.75366211 C-123.08401695 78.17613286 -110.46493446 52.60561432 -90.76879883 32.47436523 C-76.29289083 18.65741927 -57.72988949 9.16352785 -38.42114258 4.18530273 C-37.31899414 3.89913086 -36.2168457 3.61295898 -35.08129883 3.31811523 C-23.37957776 0.45071567 -12.00029001 -0.00123093 0 0 Z " fill="#323330" transform="translate(683.421142578125,408.814697265625)"/>
<path d="M0 0 C27.72 0 55.44 0 84 0 C84.06625009 38.37035056 84.12159867 76.74064678 84.15319599 115.11103825 C84.1569477 119.65044162 84.1608307 124.18984486 84.16479492 128.72924805 C84.16558185 129.63288642 84.16636878 130.53652479 84.16717956 131.46754614 C84.1802009 146.06126152 84.20383654 160.6549411 84.23145839 175.24863531 C84.25960396 190.24512906 84.27619552 205.24160417 84.28226548 220.23812324 C84.28636303 229.47704902 84.29926117 238.71587362 84.3237494 247.95476822 C84.33971985 254.30721902 84.34437506 260.65961823 84.34050413 267.01208761 C84.33859998 270.66631421 84.34132641 274.32036516 84.35761642 277.97455978 C84.44778355 299.28101363 83.36834727 319.5529693 77 340 C76.71511719 340.93585938 76.43023437 341.87171875 76.13671875 342.8359375 C68.0375039 367.16926142 50.61432125 388.49047941 27.71191406 400.16650391 C16.96282068 405.3320281 6.06631329 409.44554993 -5.5625 412.125 C-6.26568359 412.29386719 -6.96886719 412.46273438 -7.69335938 412.63671875 C-8.74426758 412.88228516 -8.74426758 412.88228516 -9.81640625 413.1328125 C-10.73595093 413.34768311 -10.73595093 413.34768311 -11.67407227 413.56689453 C-18.06876986 414.75763595 -24.34018464 415.17448936 -30.828125 415.23828125 C-31.65105042 415.24802979 -32.47397583 415.25777832 -33.32183838 415.26782227 C-66.56999037 415.58119583 -66.56999037 415.58119583 -82 411 C-83.37848047 410.63251371 -84.75738852 410.26662757 -86.13671875 409.90234375 C-106.85102987 404.17148341 -124.06684766 393.193819 -140 379 C-140.66773438 378.40574219 -141.33546875 377.81148437 -142.0234375 377.19921875 C-150.66466907 369.02453255 -157.17146144 359.08382928 -163.125 348.875 C-163.6106543 348.04516602 -164.09630859 347.21533203 -164.59667969 346.36035156 C-168 340.38420981 -168 340.38420981 -168 337 C-165.67352746 335.41050399 -163.39785109 334.04317567 -160.9375 332.6875 C-159.36088072 331.78968662 -157.78541897 330.88983842 -156.2109375 329.98828125 C-154.94008301 329.26439209 -154.94008301 329.26439209 -153.64355469 328.52587891 C-149.06982326 325.88588801 -144.56870471 323.12814421 -140.0625 320.375 C-139.11391113 319.7989502 -138.16532227 319.22290039 -137.18798828 318.62939453 C-132.33406428 315.67563453 -127.49983051 312.6945203 -122.6988678 309.65557861 C-120.32044484 308.15103367 -117.93654324 306.65528321 -115.55245972 305.159729 C-114.39826685 304.43188808 -113.24695318 303.69946001 -112.09866333 302.96234131 C-110.49604063 301.93381731 -108.88298499 300.9216048 -107.26953125 299.91015625 C-106.34760986 299.32371338 -105.42568848 298.73727051 -104.47583008 298.13305664 C-102 297 -102 297 -99.78686523 297.14257812 C-96.77111942 298.58967463 -95.71195548 301.57642487 -94.25 304.4375 C-90.77751535 310.88134533 -86.75179275 316.41963834 -82 322 C-81.36320312 322.84175781 -80.72640625 323.68351562 -80.0703125 324.55078125 C-74.42677653 331.22719078 -65.62764282 336.57711033 -57 338 C-52.93993045 338.24195448 -48.87909209 338.23103047 -44.8125 338.25 C-43.72646484 338.270625 -42.64042969 338.29125 -41.52148438 338.3125 C-30.37892564 338.36603782 -21.75017912 336.02174867 -13 329 C-10.65057354 326.81327138 -10.65057354 326.81327138 -9 324 C-8.59136719 323.38382813 -8.18273437 322.76765625 -7.76171875 322.1328125 C1.41008611 306.49474994 -0.54817181 285.27135836 -0.56726015 267.85457122 C-0.5678926 264.24815598 -0.55118482 260.64181157 -0.53674316 257.03543091 C-0.51411102 250.80972556 -0.50209892 244.58407557 -0.49761391 238.35833168 C-0.49111376 229.35732751 -0.46810929 220.35642278 -0.44127061 211.355459 C-0.39815025 196.74667098 -0.36809964 182.13788719 -0.34643555 167.52905273 C-0.32538139 153.35064623 -0.29806787 139.1722742 -0.26245117 124.99389648 C-0.26025235 124.11772454 -0.25805352 123.24155259 -0.25578807 122.33882997 C-0.24471731 117.94267074 -0.23352471 113.54651184 -0.22227156 109.15035307 C-0.12929564 72.76692294 -0.06003933 36.38350232 0 0 Z " fill="#323330" transform="translate(405,414)"/>
</svg>
