<svg id="eRbr7DjcES01" xmlns="http://www.w3.org/2000/svg" xmlns:xlink="http://www.w3.org/1999/xlink" viewBox="0 0 581 522" shape-rendering="geometricPrecision" text-rendering="geometricPrecision"><g transform="matrix(5.973707 0 0 5.391592-869.635576-971.591847)"><polygon points="0.035362,-46.511445 39.311741,22.696644 -39.311741,22.696644 0.035362,-46.511445" transform="matrix(.001099 1.189713-.658324 0.000608 191.8776 228.627897)" fill="none" stroke="#ee6c4d" stroke-width="3" stroke-linejoin="round"/><polygon points="0.03594,-47.638267 39.311741,22.696644 -39.311674,22.565445 0.03594,-47.638267" transform="matrix(-.001099-1.189713 0.658324-.000608 196.074645 228.655491)" fill="none" stroke="#ee6c4d" stroke-width="3" stroke-linejoin="round"/><polygon points="0.069803,-47.589718 39.311741,22.696644 -39.311741,22.696644 0.069803,-47.589718" transform="matrix(1.189713-.001099 0.000608 0.658324 193.826257 230.876286)" fill="none" stroke="#ee6c4d" stroke-width="3" stroke-linejoin="round"/><polygon points="-0.228304,-49.472511 39.311741,22.696644 -39.311741,22.696644 -0.228304,-49.472511" transform="matrix(-1.189713 0.001099-.000608-.658324 193.853851 225.862766)" fill="none" stroke="#ee6c4d" stroke-width="3" stroke-linejoin="round"/></g></svg>
